<?xml version="1.0" standalone="no"?>
<!DOCTYPE svg PUBLIC "-//W3C//DTD SVG 20010904//EN"
 "http://www.w3.org/TR/2001/REC-SVG-20010904/DTD/svg10.dtd">
<svg version="1.0" xmlns="http://www.w3.org/2000/svg"
 width="1004.000000pt" height="591.000000pt" viewBox="0 0 1004.000000 591.000000"
 preserveAspectRatio="xMidYMid meet">

<g transform="translate(0.000000,591.000000) scale(0.100000,-0.100000)"
fill="#000000" stroke="none">
<path d="M4743 3560 c-200 -52 -354 -179 -442 -363 -189 -396 18 -850 436
-958 42 -10 95 -19 118 -19 l42 0 6 173 c9 215 9 381 1 430 l-7 37 -58 0 -59
0 0 -260 c0 -301 9 -283 -107 -225 -250 125 -375 417 -294 685 56 184 197 328
378 384 l23 7 2 -188 3 -188 39 -3 c22 -2 49 -1 61 2 21 5 21 9 24 256 l3 250
-49 -1 c-26 0 -80 -9 -120 -19z"/>
<path d="M4992 3296 l3 -287 250 -145 c138 -80 254 -149 259 -154 18 -18 -54
-140 -127 -217 -55 -57 -88 -82 -153 -115 -46 -22 -90 -38 -98 -35 -14 6 -16
32 -16 187 l0 180 -60 0 -60 0 0 -246 0 -247 59 6 c149 13 320 102 426 220 74
83 136 203 159 309 6 25 -3 32 -259 180 l-265 153 0 177 c0 97 3 179 8 181 15
10 115 -37 184 -86 80 -58 132 -119 181 -217 l33 -65 49 -3 c26 -2 52 1 56 5
11 11 -48 145 -91 207 -107 157 -291 267 -483 291 l-57 7 2 -286z"/>
</g>
</svg>
